<svg width="83" height="60" viewBox="0 0 83 60" fill="none" xmlns="http://www.w3.org/2000/svg">
<mask id="path-1-outside-1_256_16365" maskUnits="userSpaceOnUse" x="-0.467285" y="-5.82227" width="102" height="82" fill="black">
<rect fill="white" x="-0.467285" y="-5.82227" width="102" height="82"/>
<path d="M21.7005 16.9884C27.2005 -5.61431 69.2005 -0.271805 69.2005 -0.271805H95.9505V29.1118V70.824H69.2005H28.2005C28.2005 70.824 20.0001 72.057 9.00017 56.0296C-1.99975 40.0022 16.2005 39.5912 21.7005 16.9884Z"/>
</mask>
<path d="M21.7005 16.9884C27.2005 -5.61431 69.2005 -0.271805 69.2005 -0.271805H95.9505V29.1118V70.824H69.2005H28.2005C28.2005 70.824 20.0001 72.057 9.00017 56.0296C-1.99975 40.0022 16.2005 39.5912 21.7005 16.9884Z" fill="#FF6A00"/>
<path d="M69.2005 -0.271805L68.5695 4.68823C68.7788 4.71485 68.9895 4.72819 69.2005 4.72819V-0.271805ZM28.2005 70.824V65.824C27.9517 65.824 27.7032 65.8426 27.4571 65.8796L28.2005 70.824ZM95.9505 70.824V75.824C98.7119 75.824 100.95 73.5855 100.95 70.824H95.9505ZM95.9505 -0.271805H100.95V-5.27181H95.9505V-0.271805ZM69.2005 -0.271805C69.8314 -5.23184 69.8299 -5.23203 69.8283 -5.23224C69.8275 -5.23233 69.8257 -5.23256 69.8242 -5.23275C69.8211 -5.23314 69.8174 -5.2336 69.8131 -5.23415C69.8044 -5.23523 69.7932 -5.23662 69.7794 -5.23831C69.752 -5.24169 69.7144 -5.24624 69.6671 -5.25183C69.5724 -5.26303 69.4387 -5.27841 69.2682 -5.29696C68.9273 -5.33404 68.4392 -5.38382 67.8231 -5.438C66.5919 -5.54627 64.844 -5.67264 62.7355 -5.75004C58.5387 -5.90409 52.8164 -5.86805 46.853 -5.07397C40.9408 -4.28671 34.466 -2.71367 28.972 0.409093C23.3733 3.5913 18.6188 8.50559 16.8423 15.8063L26.5587 18.1706C27.5322 14.1699 30.0902 11.276 33.9134 9.10288C37.8413 6.87034 42.8976 5.54099 48.173 4.83854C53.3971 4.1429 58.5185 4.1019 62.3686 4.24323C64.2835 4.31352 65.8599 4.42795 66.947 4.52356C67.4901 4.57132 67.9096 4.61425 68.1867 4.64439C68.3252 4.65945 68.4279 4.67131 68.4925 4.67895C68.5249 4.68277 68.5476 4.68554 68.5606 4.68713C68.567 4.68792 68.571 4.68842 68.5725 4.68861C68.5733 4.6887 68.5734 4.68872 68.5729 4.68866C68.5727 4.68863 68.5718 4.68852 68.5717 4.6885C68.5707 4.68838 68.5695 4.68823 69.2005 -0.271805ZM13.1226 53.2002C10.6997 49.6699 10.456 47.8136 10.5492 46.8081C10.6523 45.696 11.2534 44.4145 13.0992 42.0578C16.6533 37.5202 23.4908 30.7787 26.5587 18.1706L16.8423 15.8063C14.4102 25.8009 9.39761 30.5663 5.22655 35.8917C3.20979 38.4666 0.979498 41.7056 0.591933 45.8846C0.194488 50.1702 1.80064 54.3755 4.87769 58.8589L13.1226 53.2002ZM4.87769 58.8589C10.7323 67.3894 16.136 71.7547 20.5074 73.9183C22.6922 74.9996 24.5699 75.5052 26.0378 75.7157C26.7678 75.8203 27.3849 75.8503 27.8757 75.8455C28.1207 75.8431 28.3334 75.832 28.5121 75.8174C28.6015 75.8102 28.6823 75.802 28.7543 75.7936C28.7903 75.7894 28.8241 75.7852 28.8557 75.781C28.8715 75.7789 28.8868 75.7767 28.9015 75.7747C28.9088 75.7736 28.916 75.7726 28.9231 75.7716C28.9266 75.771 28.9318 75.7703 28.9336 75.77C28.9388 75.7692 28.9439 75.7685 28.2005 70.824C27.4571 65.8796 27.4622 65.8789 27.4672 65.8781C27.4689 65.8779 27.4739 65.8771 27.4772 65.8766C27.4837 65.8757 27.4902 65.8748 27.4965 65.8739C27.5092 65.8721 27.5215 65.8704 27.5333 65.8688C27.5569 65.8656 27.5788 65.8629 27.599 65.8606C27.6393 65.8559 27.6727 65.8527 27.6993 65.8505C27.7525 65.8462 27.7783 65.8459 27.7776 65.846C27.777 65.846 27.6675 65.8471 27.4568 65.8168C27.0434 65.7576 26.1835 65.5698 24.9432 64.9559C22.4644 63.7291 18.2679 60.6971 13.1226 53.2002L4.87769 58.8589ZM28.2005 75.824H69.2005V65.824H28.2005V75.824ZM69.2005 75.824H95.9505V65.824H69.2005V75.824ZM95.9505 -5.27181H69.2005V4.72819H95.9505V-5.27181ZM100.95 70.824V29.1118H90.9505V70.824H100.95ZM100.95 29.1118V-0.271805H90.9505V29.1118H100.95Z" fill="#FF6A00" fill-opacity="0.3" mask="url(#path-1-outside-1_256_16365)"/>
</svg>
