<svg width="86" height="60" viewBox="0 0 86 60" fill="none" xmlns="http://www.w3.org/2000/svg">
<mask id="path-1-outside-1_256_16366" maskUnits="userSpaceOnUse" x="-0.355469" y="-10.7683" width="110" height="88" fill="black">
<rect fill="white" x="-0.355469" y="-10.7683" width="110" height="88"/>
<path d="M13.4998 6.57494C27.9998 -13.5621 82.5 -3 82.5 -3L104 -2.99997V25V71.5064H68.5H8.99988C8.99988 71.5064 28.9998 59.5886 17.9998 43.5613C6.99993 27.5339 -1.00017 26.7119 13.4998 6.57494Z"/>
</mask>
<path d="M13.4998 6.57494C27.9998 -13.5621 82.5 -3 82.5 -3L104 -2.99997V25V71.5064H68.5H8.99988C8.99988 71.5064 28.9998 59.5886 17.9998 43.5613C6.99993 27.5339 -1.00017 26.7119 13.4998 6.57494Z" fill="#009FFF"/>
<path d="M82.5 -3L81.5487 1.90867C81.8622 1.96942 82.1807 2 82.5 2L82.5 -3ZM13.4998 6.57494L17.5574 9.49664L13.4998 6.57494ZM8.99988 71.5064L6.44038 67.2112C4.50735 68.3631 3.58191 70.6643 4.17929 72.8338C4.77667 75.0033 6.74966 76.5064 8.99988 76.5064V71.5064ZM104 71.5064V76.5064C106.761 76.5064 109 74.2678 109 71.5064H104ZM104 -2.99997H109V-7.99996L104 -7.99997L104 -2.99997ZM82.5 -3C83.4513 -7.90867 83.4501 -7.9089 83.4487 -7.90917C83.448 -7.90931 83.4464 -7.90962 83.4449 -7.90991C83.4419 -7.91048 83.4381 -7.91121 83.4335 -7.9121C83.4243 -7.91387 83.4117 -7.91627 83.396 -7.91928C83.3644 -7.9253 83.3197 -7.93374 83.2625 -7.94446C83.1479 -7.96588 82.9827 -7.99639 82.7696 -8.03471C82.3436 -8.11135 81.7262 -8.21929 80.9404 -8.34837C79.3696 -8.60643 77.1227 -8.94958 74.3858 -9.29609C68.9244 -9.98752 61.4523 -10.7 53.4774 -10.7637C45.5406 -10.8272 36.8874 -10.2514 29.1509 -8.25835C21.4953 -6.28612 14.0512 -2.74744 9.44229 3.65323L17.5574 9.49664C20.1984 5.82882 25.0044 3.13638 31.6457 1.42547C38.2061 -0.264626 45.8967 -0.824019 53.3974 -0.764066C60.8601 -0.704418 67.9193 -0.0349464 73.1298 0.624722C75.7288 0.953769 77.853 1.27846 79.3193 1.51935C80.0522 1.63975 80.6198 1.73906 80.9992 1.80731C81.1889 1.84143 81.3314 1.86777 81.424 1.88509C81.4703 1.89374 81.504 1.90014 81.5249 1.90413C81.5354 1.90612 81.5426 1.9075 81.5466 1.90827C81.5486 1.90865 81.5498 1.90888 81.5501 1.90894C81.5503 1.90898 81.5499 1.90891 81.55 1.90893C81.5495 1.90882 81.5487 1.90867 82.5 -3ZM22.1223 40.7319C19.2546 36.5536 16.514 33.2746 14.5547 30.7709C12.4696 28.1064 11.4123 26.4844 10.9346 25.0397C10.2322 22.9152 10.278 19.6059 17.5574 9.49664L9.44229 3.65323C2.22164 13.681 -0.982538 20.8512 1.4401 28.1787C2.52495 31.46 4.62396 34.3072 6.67946 36.9338C8.86079 39.7212 11.2451 42.5552 13.8774 46.3906L22.1223 40.7319ZM13.8774 46.3906C16.0164 49.5072 16.4629 52.0969 16.2577 54.2049C16.0419 56.4221 15.0531 58.5799 13.5816 60.6027C12.1129 62.6216 10.3115 64.2994 8.82222 65.4953C8.08908 66.0841 7.45961 66.5338 7.02666 66.8281C6.81088 66.9748 6.64597 67.0815 6.54383 67.1463C6.49282 67.1786 6.45767 67.2004 6.43988 67.2113C6.43099 67.2168 6.42646 67.2195 6.42648 67.2195C6.42649 67.2195 6.42763 67.2188 6.42994 67.2174C6.4311 67.2167 6.43254 67.2159 6.43428 67.2148C6.43515 67.2143 6.43668 67.2134 6.43711 67.2132C6.43871 67.2122 6.44038 67.2112 8.99988 71.5064C11.5594 75.8017 11.5612 75.8006 11.5631 75.7994C11.5638 75.799 11.5658 75.7978 11.5673 75.7969C11.5703 75.7952 11.5735 75.7932 11.5771 75.7911C11.5842 75.7868 11.5926 75.7817 11.6022 75.7759C11.6213 75.7643 11.6453 75.7497 11.6739 75.7322C11.7312 75.697 11.807 75.6499 11.8998 75.591C12.0852 75.4734 12.3393 75.3084 12.6489 75.098C13.2667 74.6779 14.1138 74.0713 15.0838 73.2923C17.0007 71.7529 19.5118 69.4495 21.6681 66.4855C23.8216 63.5254 25.7702 59.6986 26.2107 55.1736C26.6617 50.5393 25.4833 45.629 22.1223 40.7319L13.8774 46.3906ZM8.99988 76.5064H68.5V66.5064H8.99988V76.5064ZM68.5 76.5064H104V66.5064H68.5V76.5064ZM104 -7.99997L82.5 -8L82.5 2L104 2.00003L104 -7.99997ZM109 71.5064V25H99V71.5064H109ZM109 25V-2.99997H99V25H109Z" fill="#009FFF" fill-opacity="0.3" mask="url(#path-1-outside-1_256_16366)"/>
</svg>
