<svg width="83" height="60" viewBox="0 0 83 60" fill="none" xmlns="http://www.w3.org/2000/svg">
<mask id="path-1-outside-1_256_16368" maskUnits="userSpaceOnUse" x="-0.732422" y="-7.31567" width="108" height="84" fill="black">
<rect fill="white" x="-0.732422" y="-7.31567" width="108" height="84"/>
<path d="M19.4997 13.9726C15.9999 -10.274 69.2001 -0.271418 69.2001 -0.271418H102V29V70.8244H64H28.2001C28.2001 70.8244 18.9997 68.6301 7.99981 52.6027C-3.00011 36.5753 22.9996 38.2191 19.4997 13.9726Z"/>
</mask>
<path d="M19.4997 13.9726C15.9999 -10.274 69.2001 -0.271418 69.2001 -0.271418H102V29V70.8244H64H28.2001C28.2001 70.8244 18.9997 68.6301 7.99981 52.6027C-3.00011 36.5753 22.9996 38.2191 19.4997 13.9726Z" fill="#F5315D"/>
<path d="M69.2001 -0.271418L68.2762 4.64248C68.5808 4.69976 68.8901 4.72858 69.2001 4.72858V-0.271418ZM7.99981 52.6027L12.1223 49.7734L12.1223 49.7734L7.99981 52.6027ZM28.2001 70.8244L27.0402 75.688C27.4202 75.7786 27.8095 75.8244 28.2001 75.8244L28.2001 70.8244ZM102 70.8244V75.8244C104.761 75.8244 107 73.5858 107 70.8244H102ZM102 -0.271418H107V-5.27142H102V-0.271418ZM69.2001 -0.271418C70.124 -5.18532 70.1228 -5.18555 70.1213 -5.18582C70.1206 -5.18596 70.1189 -5.18627 70.1174 -5.18655C70.1144 -5.18711 70.1106 -5.18782 70.106 -5.18868C70.0968 -5.1904 70.0843 -5.19271 70.0687 -5.19559C70.0375 -5.20135 69.9936 -5.2094 69.9374 -5.21955C69.8251 -5.23986 69.6638 -5.26862 69.4568 -5.30448C69.0429 -5.37617 68.4458 -5.47631 67.6926 -5.59396C66.1874 -5.82908 64.0524 -6.13508 61.5051 -6.42368C56.4382 -6.99777 49.6177 -7.51736 42.8315 -7.23764C36.194 -6.96405 28.9168 -5.90812 23.3797 -2.86336C20.5308 -1.29679 17.9334 0.910973 16.2439 3.99953C14.5296 7.13335 13.9828 10.7504 14.551 14.6869L24.4485 13.2582C24.1417 11.1331 24.4918 9.75879 25.017 8.79868C25.567 7.79331 26.5517 6.80457 28.1981 5.89922C31.6518 4.00011 37.0184 3.01046 43.2434 2.75387C49.3198 2.50341 55.5806 2.96906 60.3793 3.51275C62.7649 3.78303 64.7589 4.06905 66.1493 4.28624C66.844 4.39475 67.3865 4.48583 67.7502 4.54881C67.9319 4.5803 68.0689 4.60474 68.1577 4.62081C68.2021 4.62884 68.2345 4.63477 68.2544 4.63844C68.2643 4.64027 68.2711 4.64154 68.2748 4.64222C68.2766 4.64256 68.2776 4.64276 68.2779 4.6428C68.278 4.64282 68.2776 4.64274 68.2776 4.64275C68.277 4.64264 68.2762 4.64248 69.2001 -0.271418ZM12.1223 49.7734C9.87359 46.4969 10.2379 45.2522 10.3861 44.8127C10.7614 43.6999 11.8199 42.5221 14.4483 39.9296C16.7539 37.6556 19.9052 34.5681 22.0942 30.2405C24.3624 25.7564 25.4601 20.2666 24.4485 13.2582L14.551 14.6869C15.2894 19.8019 14.4495 23.199 13.1708 25.7268C11.813 28.4113 9.80807 30.4607 7.42617 32.81C5.36712 34.8409 2.20698 37.7727 0.910443 41.617C-0.613205 46.1348 0.626065 50.6948 3.87733 55.4321L12.1223 49.7734ZM3.87733 55.4321C9.69035 63.9019 15.1593 68.9047 19.3731 71.8308C21.476 73.291 23.2495 74.2223 24.5733 74.8061C25.2344 75.0976 25.781 75.3014 26.1977 75.4408C26.406 75.5104 26.5817 75.5639 26.7228 75.6041C26.7933 75.6243 26.8552 75.6411 26.9082 75.6549C26.9347 75.6618 26.9589 75.668 26.9809 75.6735C26.992 75.6763 27.0024 75.6789 27.0123 75.6813C27.0172 75.6825 27.022 75.6836 27.0266 75.6848C27.029 75.6853 27.0323 75.6861 27.0335 75.6864C27.0369 75.6872 27.0402 75.688 28.2001 70.8244C29.3601 65.9608 29.3633 65.9616 29.3665 65.9624C29.3676 65.9626 29.3707 65.9634 29.3728 65.9639C29.3769 65.9649 29.3808 65.9658 29.3846 65.9668C29.3923 65.9686 29.3993 65.9704 29.4059 65.972C29.419 65.9753 29.4299 65.9781 29.4386 65.9804C29.4561 65.9849 29.465 65.9875 29.4654 65.9876C29.4664 65.9879 29.4337 65.9786 29.3689 65.9569C29.2396 65.9137 28.9814 65.8208 28.6081 65.6562C27.863 65.3276 26.649 64.7087 25.0768 63.6169C21.9404 61.439 17.3092 57.3309 12.1223 49.7734L3.87733 55.4321ZM28.2001 75.8244H64V65.8244H28.2001V75.8244ZM64 75.8244H102V65.8244H64V75.8244ZM102 -5.27142H69.2001V4.72858H102V-5.27142ZM107 70.8244V29H97V70.8244H107ZM107 29V-0.271418H97V29H107Z" fill="#F5315D" fill-opacity="0.3" mask="url(#path-1-outside-1_256_16368)"/>
</svg>
