<svg width="269" height="59" viewBox="0 0 269 59" fill="none" xmlns="http://www.w3.org/2000/svg">
<path d="M37.92 11.4V45H28.8L10.8 17.64H10.32V45H3.36V11.4H12.48L30.48 38.76H30.96V11.4H37.92ZM59.0569 42.6C60.6249 42.6 62.0809 42.328 63.4249 41.784C64.8009 41.24 66.1449 40.472 67.4569 39.48L69.3769 42.36C68.7689 42.904 68.0489 43.4 67.2169 43.848C66.4169 44.296 65.5369 44.68 64.5769 45C63.6489 45.288 62.6729 45.512 61.6489 45.672C60.6249 45.864 59.6009 45.96 58.5769 45.96C56.3049 45.96 54.2249 45.656 52.3369 45.048C50.4809 44.472 48.8969 43.624 47.5849 42.504C46.2729 41.352 45.2489 39.944 44.5129 38.28C43.8089 36.616 43.4569 34.696 43.4569 32.52C43.4569 30.376 43.7929 28.472 44.4649 26.808C45.1689 25.112 46.1289 23.704 47.3449 22.584C48.5929 21.432 50.0649 20.568 51.7609 19.992C53.4569 19.384 55.3289 19.08 57.3769 19.08C59.2969 19.08 61.1049 19.368 62.8009 19.944C64.4969 20.52 65.9689 21.368 67.2169 22.488C68.4649 23.576 69.4569 24.904 70.1929 26.472C70.9289 28.04 71.2969 29.816 71.2969 31.8V35.16H50.8009C51.1849 37.816 52.0969 39.72 53.5369 40.872C55.0089 42.024 56.8489 42.6 59.0569 42.6ZM57.3769 22.2C56.4489 22.2 55.5849 22.376 54.7849 22.728C53.9849 23.08 53.2809 23.64 52.6729 24.408C52.0969 25.176 51.6169 26.168 51.2329 27.384C50.8809 28.6 50.6889 30.072 50.6569 31.8H64.0969C64.0969 30.136 63.9049 28.696 63.5209 27.48C63.1369 26.264 62.6249 25.272 61.9849 24.504C61.3769 23.704 60.6569 23.128 59.8249 22.776C59.0249 22.392 58.2089 22.2 57.3769 22.2ZM90.7556 32.376L101.316 45H93.6356L86.9156 36.984L80.1956 45H72.5156L83.0756 32.376L72.7556 20.04H80.4356L86.9156 27.816L93.3956 20.04H101.076L90.7556 32.376ZM106.817 23.4H102.257V20.04H106.817V12.36H113.537V20.04H120.977V23.4H113.537V35.88C113.537 37.096 113.665 38.136 113.921 39C114.209 39.832 114.577 40.52 115.025 41.064C115.505 41.576 116.049 41.96 116.657 42.216C117.265 42.472 117.905 42.6 118.577 42.6C119.537 42.6 120.465 42.456 121.361 42.168C122.257 41.848 123.009 41.512 123.617 41.16L125.057 44.28C124.097 44.76 122.993 45.16 121.745 45.48C120.529 45.8 119.313 45.96 118.097 45.96C114.481 45.96 111.697 45.064 109.745 43.272C107.793 41.48 106.817 39.016 106.817 35.88V23.4ZM135.851 15V26.52H153.371V30.12H135.851V45H128.891V11.4H159.131V15H135.851ZM170.398 45H163.678V20.52H170.398V45ZM170.638 14.04C170.638 15 170.302 15.848 169.63 16.584C168.99 17.288 168.126 17.64 167.038 17.64C165.95 17.64 165.07 17.288 164.398 16.584C163.758 15.848 163.438 15 163.438 14.04C163.438 13.08 163.758 12.248 164.398 11.544C165.07 10.808 165.95 10.44 167.038 10.44C168.094 10.44 168.958 10.808 169.63 11.544C170.302 12.248 170.638 13.08 170.638 14.04ZM179.52 23.4H174.96V20.04H179.52V12.36H186.24V20.04H193.68V23.4H186.24V35.88C186.24 37.096 186.368 38.136 186.624 39C186.912 39.832 187.28 40.52 187.728 41.064C188.208 41.576 188.752 41.96 189.36 42.216C189.968 42.472 190.608 42.6 191.28 42.6C192.24 42.6 193.168 42.456 194.064 42.168C194.96 41.848 195.712 41.512 196.32 41.16L197.76 44.28C196.8 44.76 195.696 45.16 194.448 45.48C193.232 45.8 192.016 45.96 190.8 45.96C187.184 45.96 184.4 45.064 182.448 43.272C180.496 41.48 179.52 39.016 179.52 35.88V23.4Z" fill="white"/>
<path d="M248.797 16.436C248.815 15.9232 248.49 16.2864 248.421 15.9061C248.357 15.5259 247.913 15.7694 247.964 15.5259C248.02 15.2781 247.691 14.9234 247.456 15.2781C247.225 15.6284 246.618 16.5343 246.618 16.5343C246.618 16.5343 246.584 16.4573 246.533 16.3292C246.482 16.2052 246.584 15.7951 246.409 15.496C246.234 15.1969 245.896 15.3037 245.9 15.4276C245.905 15.5516 245.9 16.0044 245.913 16.0942C245.93 16.1839 245.918 16.7308 245.913 16.953C245.909 17.1794 246.328 18.2135 246.328 18.2135C246.328 18.2135 245.896 18.5895 245.524 18.8971H245.52C245.315 19.0638 245.131 19.209 245.042 19.2603C244.785 19.4056 244.063 19.538 244.063 19.538C244.063 19.538 244.072 19.38 244.089 19.145C244.106 18.8416 244.131 18.4057 244.161 18.0083C244.213 17.3076 244.08 16.4317 243.824 16.0002C243.794 14.3936 242.922 14.7312 242.854 13.6032C242.773 12.8639 241.965 12.5948 241.965 12.5948C241.965 12.5948 241.914 12.3598 242.046 12.2573C242.174 12.1504 242.679 12.2872 243.059 12.0607C243.439 11.8385 243.431 11.4882 243.332 11.2959C243.234 11.1079 243.486 11.1933 243.567 10.9926C243.649 10.7918 243.422 10.4542 243.422 10.4542C243.422 10.4542 243.567 10.185 243.503 10.0355C243.439 9.88593 243.191 9.70217 243.337 9.65093C243.482 9.5997 243.576 9.36896 243.567 9.27065C243.559 9.17234 243.132 8.87325 242.683 8.67673C242.234 8.48021 242.867 8.10417 242.589 7.7581C242.482 7.63843 242.439 7.1898 241.974 6.69419C241.512 6.19858 240.341 5.83966 238.948 6.03618C237.556 6.22845 236.821 8.32641 236.897 9.30061C236.97 10.2748 238.124 11.0995 238.231 11.3687C238.333 11.6379 238.32 12.3258 238.32 12.3258C237.312 12.8641 236.987 14.0179 236.85 14.2742C236.718 14.5306 236.222 14.7698 235.526 15.4407C234.825 16.1158 233.21 16.1755 230.89 18.453C230.381 18.9615 230.322 19.0213 230.578 19.5895C230.774 20.0339 230.809 20.6107 231.582 21.884C231.659 22.0122 231.744 22.1489 231.838 22.2942C232.014 22.559 232.214 22.8496 232.449 23.1701C232.514 23.2641 232.59 23.3751 232.676 23.4991C232.761 23.6273 232.86 23.7683 232.958 23.9135C233.385 24.5544 233.847 25.2979 233.902 25.5671C233.975 25.956 234.334 27.007 234.483 27.1866C234.547 27.2592 234.684 27.4558 234.825 27.6652C236.551 27.3447 238.337 26.9858 240.157 26.6012C241.354 26.3491 242.503 26.0928 243.614 25.8407C243.623 25.5458 243.58 25.204 243.452 24.8024C243.255 24.1529 243.623 24.3836 243.764 23.2129C243.824 22.7814 243.704 22.8326 244.439 22.5121C244.917 22.3028 245.255 21.9952 245.913 21.1748C246.041 21.0124 246.186 20.8287 246.344 20.6193C246.618 20.2604 246.938 19.8331 247.327 19.3204C247.447 19.158 247.605 19.1324 247.818 19.0042C247.977 18.9059 248.165 18.7564 248.383 18.4445C248.562 18.1924 248.763 17.8335 248.985 17.3208C249.178 16.8035 248.785 16.953 248.797 16.436ZM236.868 24.8022C236.868 24.8022 236.479 25.3449 236.193 25.8661C236.193 25.8661 235.676 25.2593 234.954 24.7893C234.885 24.7295 234.608 24.3107 234.266 23.6015C234.202 23.469 234.133 23.3238 234.069 23.1656C233.903 22.7938 233.727 22.3538 233.557 21.8624C233.505 21.7214 233.458 21.5719 233.411 21.4181C233.232 20.8413 233.061 20.2046 232.92 19.5081C232.869 19.0253 233.228 19.1748 234.078 18.8459C234.924 18.5168 235.475 18.0768 236.402 17.7777C236.402 17.7777 236.556 19.756 236.556 20.6661C236.556 20.7344 236.552 20.7943 236.552 20.8499C236.548 20.9353 236.552 21.0336 236.556 21.149C236.569 21.5292 236.624 22.0505 236.68 22.5589V22.5632C236.697 22.7256 236.719 22.8836 236.736 23.0332C236.804 23.6142 236.868 24.1057 236.868 24.2339C236.868 24.533 236.868 24.8022 236.868 24.8022Z" fill="white"/>
<path d="M247.695 29.5577C247.499 29.6089 247.302 29.6602 247.105 29.7072C247.276 29.8226 247.439 29.9422 247.601 30.0619C249.755 31.6172 251.229 33.1298 251.575 33.4331C252.023 33.8219 252.37 34.5996 252.083 35.1081C251.801 35.6166 251.682 36.3985 251.635 36.6377C251.592 36.877 249.464 42.4018 249.075 43.3631C248.686 44.3202 248.537 45.4739 248.639 45.7431C248.746 46.0123 249.682 47.6573 249.994 47.9564C250.302 48.2554 251.63 48.4648 251.763 48.7041C251.891 48.9433 252.002 49.7637 251.13 49.9731C248.665 50.3022 248.387 49.0844 246.956 49.0844C245.529 49.0844 244.303 48.6058 244.123 47.905C244.123 47.905 244.281 46.9564 245.059 46.2172C245.841 45.478 246.029 45.6276 246.029 45.6276C246.029 45.6276 247.516 41.5812 247.712 40.56C247.904 39.5431 247.977 37.5989 248.695 35.783C245.571 33.7149 244.388 34.8686 241.542 33.2065L241.047 32.9672C241.047 32.9672 239.906 33.9072 239.359 34.014C236.911 37.099 234.894 38.4791 234.556 38.8594C234.214 39.2355 233.958 40.3378 233.159 40.6369C230.202 41.6154 228.865 43.7091 225.088 45.5464C224.314 45.9394 223.52 46.7598 223.417 46.9863C223.31 47.2128 223.31 47.6144 223.088 47.9007C222.862 48.1826 222.323 49.2038 222.323 49.7294C222.323 50.2506 223.028 51.6607 222.503 51.9128C221.977 52.1692 220.182 52.0795 219.687 50.2506C219.191 48.4262 219.747 48.7381 219.191 47.2853C218.64 45.8325 218.879 44.8284 219.191 44.3371C219.507 43.8414 221.528 44.3199 221.797 44.696C221.934 44.8455 222.037 44.9481 222.037 44.9481C222.037 44.9481 224.331 43.491 225.267 42.5724C226.207 41.6538 227.984 39.2866 231.608 37.492C231.608 37.492 232.667 35.0778 234.347 32.8603C234.483 32.6765 234.629 32.4929 234.774 32.3134C234.543 32.3561 234.312 32.3946 234.082 32.4329C221.341 34.544 211.543 34.4714 211.022 32.0188C210.509 29.6047 219.153 25.6438 231.36 22.422C231.552 22.7254 231.783 23.0629 232.061 23.439C232.104 23.5031 232.146 23.5629 232.189 23.6227C222.627 25.9856 215.837 28.4253 216.076 29.5577C216.328 30.7413 224.212 30.1131 234.603 28.1861C234.77 28.1562 234.941 28.1262 235.107 28.0921C236.769 27.7802 238.492 27.4384 240.256 27.0623C241.38 26.8231 242.487 26.5795 243.563 26.336C243.73 26.2975 243.897 26.259 244.059 26.2206C255.262 23.6398 263.628 20.777 263.363 19.5208C263.128 18.4184 256.322 18.8841 247.029 20.4992C247.165 20.3155 247.315 20.119 247.473 19.9096L247.708 19.5976C247.721 19.5848 247.776 19.5549 247.832 19.5293C248.084 19.4054 248.349 19.2473 248.639 18.8799C260.035 17.2134 268.495 17.4357 268.978 19.7131C269.508 22.1957 260.398 26.2933 247.695 29.5577Z" fill="white"/>
</svg>
